<!-- SVG Icons Sprite -->
<svg style="display: none;">
    <defs>
        <!-- Fire Icon -->
        <symbol id="icon-fire" viewBox="0 0 24 24">
            <path fill="currentColor" d="M12 23C7.03 23 3 18.97 3 14c0-3.09 1.58-5.64 3.5-7.5C8.42 4.58 10.58 3 12 3c.55 0 1 .45 1 1 0 .55-.45 1-1 1-1.03 0-2.58 1.08-4 2.5C6.42 9.08 5 11.09 5 14c0 3.86 3.14 7 7 7s7-3.14 7-7c0-1.55-.5-3-1.5-4.5-.45-.68-.5-1.55-.13-2.27.37-.72 1.05-1.23 1.88-1.23.55 0 1 .45 1 1 0 .17-.04.33-.12.48C18.42 9.36 17 11.55 17 14c0 4.97-4.03 9-9 9z"/>
        </symbol>

        <!-- Pool Icon -->
        <symbol id="icon-pool" viewBox="0 0 24 24">
            <path fill="currentColor" d="M22 21c-1.11 0-1.73-.37-2.18-.64-.37-.22-.6-.36-1.15-.36-.56 0-.78.13-1.15.36-.46.27-1.07.64-2.18.64s-1.73-.37-2.18-.64c-.37-.22-.6-.36-1.15-.36-.56 0-.78.13-1.15.36-.46.27-1.08.64-2.19.64s-1.73-.37-2.18-.64c-.37-.23-.6-.36-1.15-.36-.56 0-.78.13-1.15.36-.46.27-1.08.64-2.19.64v-2c.56 0 .78-.13 1.15-.36.46-.27 1.08-.64 2.19-.64s1.73.37 2.18.64c.37.23.59.36 1.15.36.56 0 .78-.13 1.15-.36.46-.27 1.08-.64 2.19-.64 1.11 0 1.73.37 2.18.64.37.22.6.36 1.15.36s.78-.13 1.15-.36c.45-.27 1.07-.64 2.18-.64s1.73.37 2.18.64c.37.23.59.36 1.15.36v2zm0-4.5c-1.11 0-1.73-.37-2.18-.64-.37-.22-.6-.36-1.15-.36-.56 0-.78.13-1.15.36-.45.27-1.07.64-2.18.64s-1.73-.37-2.18-.64c-.37-.22-.6-.36-1.15-.36-.56 0-.78.13-1.15.36-.45.27-1.07.64-2.18.64s-1.73-.37-2.18-.64c-.37-.22-.6-.36-1.15-.36-.56 0-.78.13-1.15.36-.45.27-1.07.64-2.18.64v-2c.56 0 .78-.13 1.15-.36.45-.27 1.07-.64 2.18-.64s1.73.37 2.18.64c.37.22.6.36 1.15.36.56 0 .78-.13 1.15-.36.45-.27 1.07-.64 2.18-.64s1.73.37 2.18.64c.37.22.6.36 1.15.36s.78-.13 1.15-.36c.45-.27 1.07-.64 2.18-.64s1.73.37 2.18.64c.37.22.6.36 1.15.36v2zM8.67 12c.56 0 .78-.13 1.15-.36.46-.27 1.08-.64 2.19-.64 1.11 0 1.73.37 2.18.64.37.23.59.36 1.15.36.56 0 .78-.13 1.15-.36.45-.27 1.07-.64 2.18-.64v2c-1.11 0-1.73.37-2.18.64-.37.22-.6.36-1.15.36-.56 0-.78-.13-1.15-.36-.45-.27-1.07-.64-2.18-.64s-1.73.37-2.18.64c-.37.23-.6.36-1.15.36-.56 0-.78-.13-1.15-.36-.45-.27-1.07-.64-2.18-.64s-1.73.37-2.18.64c-.37.23-.59.36-1.15.36v-2c1.11 0 1.73-.37 2.18-.64.37-.23.59-.36 1.15-.36z"/>
        </symbol>

        <!-- Spa Icon -->
        <symbol id="icon-spa" viewBox="0 0 24 24">
            <path fill="currentColor" d="M8.55 12c-1.07-.71-2.25-1.27-3.53-1.61 1.28.34 2.46.9 3.53 1.61zm10.43-1.61c-1.29.34-2.49.91-3.57 1.64 1.08-.73 2.28-1.3 3.57-1.64z"/>
            <path fill="currentColor" d="M15.49 9.63c-.18-2.79-1.31-5.51-3.43-7.63-2.14 2.14-3.32 4.86-3.55 7.63 1.28.68 2.46 1.56 3.49 2.63 1.03-1.06 2.21-1.94 3.49-2.63zm-6.5 2.65c-.14-.1-.3-.19-.45-.29.15.11.31.19.45.29zm6.42-.25c-.13.09-.27.16-.4.26.13-.1.27-.17.4-.26zM12 15.45C9.85 12.17 6.18 10 2 10c0 5.32 3.36 9.82 8.03 11.49.63.23 1.29.4 1.97.51.68-.12 1.33-.29 1.97-.51C18.64 19.82 22 15.32 22 10c-4.18 0-7.85 2.17-10 5.45z"/>
        </symbol>

        <!-- Jacuzzi Icon -->
        <symbol id="icon-jacuzzi" viewBox="0 0 24 24">
            <path fill="currentColor" d="M7 6c.55 0 1-.45 1-1V3c0-.55-.45-1-1-1s-1 .45-1 1v2c0 .55.45 1 1 1zm3 0c.55 0 1-.45 1-1V3c0-.55-.45-1-1-1s-1 .45-1 1v2c0 .55.45 1 1 1zm3 0c.55 0 1-.45 1-1V3c0-.55-.45-1-1-1s-1 .45-1 1v2c0 .55.45 1 1 1zm5.5 6H22c0-2.76-2.24-5-5-5h-5.5v2h5.5c1.65 0 3 1.35 3 3zM2 12c0-2.76 2.24-5 5-5h5.5v2H7c-1.65 0-3 1.35-3 3H2zm18 2H4c-1.1 0-2 .9-2 2v3c0 1.1.9 2 2 2h16c1.1 0 2-.9 2-2v-3c0-1.1-.9-2-2-2z"/>
        </symbol>

        <!-- Billiard Icon -->
        <symbol id="icon-billiard" viewBox="0 0 24 24">
            <circle fill="currentColor" cx="12" cy="12" r="10"/>
            <circle fill="#fff" cx="12" cy="12" r="3"/>
            <text x="12" y="14" text-anchor="middle" fill="#000" font-size="4" font-weight="bold">8</text>
        </symbol>

        <!-- Lounge Icon -->
        <symbol id="icon-lounge" viewBox="0 0 24 24">
            <path fill="currentColor" d="M7 13c1.66 0 3-1.34 3-3S8.66 7 7 7s-3 1.34-3 3 1.34 3 3 3zm12-6h-8v7H3V7H1v10h22v-6c0-2.21-1.79-4-4-4z"/>
        </symbol>

        <!-- Dining Icon -->
        <symbol id="icon-dining" viewBox="0 0 24 24">
            <path fill="currentColor" d="M8.1 13.34l2.83-2.83L3.91 3.5c-1.56 1.56-1.56 4.09 0 5.66l4.19 4.18zm6.78-1.81c1.53.71 3.68.21 5.27-1.38 1.91-1.91 2.28-4.65.81-6.12-1.46-1.46-4.2-1.1-6.12.81-1.59 1.59-2.09 3.74-1.38 5.27L3.7 19.87l1.41 1.41L12 14.41l6.88 6.88 1.41-1.41L13.41 13l1.47-1.47z"/>
        </symbol>

        <!-- Parking Icon -->
        <symbol id="icon-parking" viewBox="0 0 24 24">
            <path fill="currentColor" d="M13 3H6v18h4v-6h3c3.31 0 6-2.69 6-6s-2.69-6-6-6zm.2 8H10V7h3.2c1.1 0 2 .9 2 2s-.9 2-2 2z"/>
        </symbol>

        <!-- People Icon -->
        <symbol id="icon-people" viewBox="0 0 24 24">
            <path fill="currentColor" d="M16 11c1.66 0 2.99-1.34 2.99-3S17.66 5 16 5c-1.66 0-3 1.34-3 3s1.34 3 3 3zm-8 0c1.66 0 2.99-1.34 2.99-3S9.66 5 8 5C6.34 5 5 6.34 5 8s1.34 3 3 3zm0 2c-2.33 0-7 1.17-7 3.5V19h14v-2.5c0-2.33-4.67-3.5-7-3.5zm8 0c-.29 0-.62.02-.97.05 1.16.84 1.97 1.97 1.97 3.45V19h6v-2.5c0-2.33-4.67-3.5-7-3.5z"/>
        </symbol>

        <!-- Temperature Icon -->
        <symbol id="icon-temp" viewBox="0 0 24 24">
            <path fill="currentColor" d="M15 13V5c0-1.66-1.34-3-3-3S9 3.34 9 5v8c-1.21.91-2 2.37-2 4 0 2.76 2.24 5 5 5s5-2.24 5-5c0-1.63-.79-3.09-2-4zm-4-8c0-.55.45-1 1-1s1 .45 1 1h-1v1h1v2h-1v1h1v2h-2V5z"/>
        </symbol>

        <!-- Bath Icon -->
        <symbol id="icon-bath" viewBox="0 0 24 24">
            <circle fill="currentColor" cx="7" cy="7" r="2"/>
            <path fill="currentColor" d="M20 13V4.83C20 3.27 18.73 2 17.17 2c-.75 0-1.47.3-2 .83l-1.25 1.25c-.16-.05-.33-.08-.51-.08-.4 0-.77.12-1.08.32l2.76 2.76c.2-.31.32-.68.32-1.08 0-.18-.03-.34-.07-.51l1.25-1.25a.828.828 0 0 1 1.41.59V13h-6.85c-.3-.21-.57-.45-.82-.72l-1.4-1.55c-.19-.21-.43-.38-.69-.5A2.251 2.251 0 0 0 5 12.25V13H2v6c0 1.1.9 2 2 2 0 .55.45 1 1 1h14c.55 0 1-.45 1-1 1.1 0 2-.9 2-2v-6h-2z"/>
        </symbol>

        <!-- Steam Icon -->
        <symbol id="icon-steam" viewBox="0 0 24 24">
            <path fill="currentColor" d="M12.5 6.5c1.38 0 2.5-1.12 2.5-2.5 0-1.38-1.12-2.5-2.5-2.5S10 2.62 10 4c0 1.38 1.12 2.5 2.5 2.5zM6.5 11c1.38 0 2.5-1.12 2.5-2.5S7.88 6 6.5 6 4 7.12 4 8.5 5.12 11 6.5 11zm12 0c1.38 0 2.5-1.12 2.5-2.5S19.88 6 18.5 6 16 7.12 16 8.5s1.12 2.5 2.5 2.5zM22 19v-2H2v2c0 1.1.9 2 2 2h16c1.1 0 2-.9 2-2zm-2-5.5c0-2.76-2.24-5-5-5h-6c-2.76 0-5 2.24-5 5V16h16v-2.5z"/>
        </symbol>
    </defs>
</svg>
